<?xml version="1.0" encoding="utf-8"?>
<!-- Generator: Adobe Illustrator 28.1.0, SVG Export Plug-In . SVG Version: 6.00 Build 0)  -->
<svg version="1.1" id="_レイヤー_2" xmlns="http://www.w3.org/2000/svg" xmlns:xlink="http://www.w3.org/1999/xlink" x="0px"
	 y="0px" viewBox="0 0 200 200" style="enable-background:new 0 0 200 200;" xml:space="preserve">
<style type="text/css">
	.st0{fill:#628B75;}
	.st1{fill-rule:evenodd;clip-rule:evenodd;fill:#628B75;}
</style>
<g id="_オブジェクト">
	<circle class="st0" cx="3.763" cy="102.527" r="3.763"/>
	<path class="st1" d="M24.278,81.971c2.626,2.626,2.626,6.838,0,9.464c-2.571,2.571-6.784,2.571-9.41,0
		c-2.626-2.626-2.626-6.838,0-9.464C17.494,79.4,21.707,79.4,24.278,81.971z"/>
	<path class="st1" d="M45.066,61.237c3.775,3.72,3.775,9.792,0,13.513c-3.72,3.775-9.792,3.775-13.513,0
		c-3.775-3.72-3.775-9.792,0-13.513C35.274,57.462,41.346,57.462,45.066,61.237z"/>
	<path class="st1" d="M70.067,36.236c4.869,4.869,4.869,12.747,0,17.616c-4.869,4.924-12.801,4.924-17.67,0
		c-4.869-4.869-4.869-12.747,0-17.616C57.266,31.312,65.198,31.312,70.067,36.236z"/>
	<circle class="st0" cx="90.875" cy="15.415" r="15.415"/>
	<circle class="st0" cx="49.63" cy="103.517" r="3.763"/>
	<path class="st1" d="M70.177,83.01c2.571,2.571,2.571,6.784,0,9.41c-2.626,2.626-6.838,2.626-9.464,0
		c-2.571-2.626-2.571-6.838,0-9.41C63.338,80.384,67.551,80.384,70.177,83.01z"/>
	<path class="st1" d="M90.965,62.222c3.72,3.72,3.72,9.792,0,13.513c-3.775,3.775-9.847,3.775-13.567,0
		c-3.72-3.72-3.72-9.792,0-13.513C81.118,58.447,87.19,58.447,90.965,62.222z"/>
	<path class="st1" d="M115.966,37.221c4.869,4.869,4.869,12.747,0,17.67c-4.924,4.869-12.801,4.869-17.67,0
		c-4.869-4.924-4.869-12.801,0-17.67C103.165,32.352,111.042,32.352,115.966,37.221z"/>
	<circle class="st0" cx="136.742" cy="16.404" r="15.415"/>
	<circle class="st0" cx="19.966" cy="180.037" r="3.763"/>
	<path class="st1" d="M40.088,159.873c2.134,2.134,2.134,5.58,0,7.714c-2.079,2.079-5.525,2.079-7.659,0
		c-2.079-2.134-2.079-5.58,0-7.714C34.563,157.794,38.009,157.794,40.088,159.873z"/>
	<path class="st1" d="M59.126,140.89c2.79,2.735,2.79,7.221,0,10.011c-2.79,2.79-7.276,2.79-10.011,0
		c-2.79-2.79-2.79-7.276,0-10.011C51.85,138.1,56.336,138.1,59.126,140.89z"/>
	<path class="st1" d="M79.969,120.047c3.447,3.392,3.447,8.917,0,12.364c-3.392,3.392-8.917,3.392-12.364,0
		c-3.392-3.446-3.392-8.972,0-12.364C71.052,116.6,76.577,116.6,79.969,120.047z"/>
	<path class="st1" d="M103.11,96.906c4.048,4.048,4.048,10.668,0,14.716c-4.048,4.048-10.668,4.048-14.716,0
		c-4.103-4.048-4.103-10.668,0-14.716C92.442,92.857,99.062,92.857,103.11,96.906z"/>
	<path class="st1" d="M129.095,70.92c4.705,4.705,4.705,12.364,0,17.068c-4.705,4.705-12.364,4.705-17.068,0
		c-4.759-4.705-4.759-12.364,0-17.068C116.732,66.215,124.391,66.215,129.095,70.92z"/>
	<path class="st1" d="M158.801,41.214c5.361,5.361,5.361,14.06,0,19.421c-5.361,5.361-14.06,5.361-19.476,0
		c-5.361-5.361-5.361-14.06,0-19.421C144.742,35.853,153.44,35.853,158.801,41.214z"/>
	<circle class="st0" cx="182.61" cy="17.394" r="15.415"/>
	<path class="st1" d="M100.135,193.578c-1.469-1.469-3.852-1.469-5.321,0c-1.469,1.469-1.469,3.852,0,5.321
		c1.469,1.469,3.852,1.469,5.321,0C101.604,197.43,101.604,195.047,100.135,193.578z"/>
	<path class="st1" d="M117.99,175.683c-2.571-2.571-6.784-2.571-9.41,0c-2.626,2.626-2.626,6.838,0,9.464
		c2.626,2.571,6.838,2.571,9.41,0C120.616,182.521,120.616,178.309,117.99,175.683z"/>
	<path class="st1" d="M138.779,154.949c-3.72-3.775-9.792-3.775-13.567,0c-3.72,3.72-3.72,9.792,0,13.513
		c3.775,3.775,9.847,3.775,13.567,0C142.553,164.742,142.553,158.669,138.779,154.949z"/>
	<path class="st1" d="M163.779,129.948c-4.869-4.924-12.801-4.924-17.67,0c-4.869,4.869-4.869,12.747,0,17.616
		c4.869,4.924,12.801,4.924,17.67,0C168.648,142.695,168.648,134.817,163.779,129.948z"/>
	<circle class="st0" cx="184.587" cy="109.126" r="15.415"/>
	<circle class="st0" cx="96.484" cy="150.371" r="3.763"/>
	<path class="st1" d="M117.005,129.839c-2.571-2.626-6.838-2.626-9.41,0c-2.626,2.626-2.626,6.838,0,9.41
		c2.571,2.626,6.838,2.626,9.41,0C119.631,136.677,119.631,132.465,117.005,129.839z"/>
	<path class="st1" d="M137.794,109.05c-3.72-3.72-9.792-3.72-13.567,0c-3.72,3.775-3.72,9.792,0,13.567
		c3.775,3.72,9.847,3.72,13.567,0C141.514,118.843,141.514,112.825,137.794,109.05z"/>
	<path class="st1" d="M162.795,84.05c-4.869-4.869-12.801-4.869-17.67,0c-4.869,4.869-4.869,12.801,0,17.67
		c4.869,4.869,12.801,4.869,17.67,0C167.664,96.851,167.664,88.919,162.795,84.05z"/>
	<circle class="st0" cx="183.597" cy="63.259" r="15.415"/>
</g>
</svg>
